<svg width="439" height="500" viewBox="0 0 439 500" fill="none" xmlns="http://www.w3.org/2000/svg">
<circle cx="215.5" cy="245.5" r="185.5" fill="url(#paint0_linear_1_65)"/>
<path d="M70 359C107.679 252.777 253.314 123.653 360 132.424" stroke="white" stroke-width="4" stroke-dasharray="10 10"/>
<path d="M191.578 372.4C175.178 372.4 163.045 367.733 155.178 358.4C147.445 348.933 143.578 335.867 143.578 319.2C143.578 305.6 145.111 293.2 148.178 282C151.245 270.8 155.578 261.2 161.178 253.2C166.778 245.2 173.511 239 181.378 234.6C189.378 230.2 198.311 228 208.178 228C215.911 228 222.578 229 228.178 231C233.911 233 238.645 235.8 242.378 239.4C246.111 243 248.911 247.333 250.778 252.4C252.778 257.467 253.978 263 254.378 269L225.778 274.8C225.511 271.467 225.045 268.4 224.378 265.6C223.845 262.8 222.845 260.4 221.378 258.4C220.045 256.4 218.178 254.867 215.778 253.8C213.511 252.6 210.578 252 206.978 252C198.711 252 192.378 255.267 187.978 261.8C183.578 268.333 180.445 277.2 178.578 288.4L174.978 310.2C174.578 312.6 174.178 315 173.778 317.4C173.511 319.8 173.378 322.6 173.378 325.8C173.378 332.867 174.911 338.4 177.978 342.4C181.045 346.4 186.245 348.4 193.578 348.4C196.778 348.4 199.711 347.8 202.378 346.6C205.045 345.267 207.445 343.533 209.578 341.4C211.711 339.267 213.645 336.8 215.378 334C217.111 331.067 218.645 327.933 219.978 324.6L245.378 332.2C239.911 345.267 232.911 355.267 224.378 362.2C215.978 369 205.045 372.4 191.578 372.4ZM283.9 230.4H331.3C343.433 230.4 352.7 233.333 359.1 239.2C365.5 245.067 368.7 252.867 368.7 262.6C368.7 282.067 359.033 294.2 339.7 299L339.5 300C346.833 301.467 352.433 304.4 356.3 308.8C360.3 313.2 362.3 319.133 362.3 326.6C362.3 333.133 361.167 339.067 358.9 344.4C356.767 349.733 353.633 354.333 349.5 358.2C345.367 361.933 340.3 364.867 334.3 367C328.433 369 321.833 370 314.5 370H260.5L283.9 230.4ZM308.1 349.2C314.767 349.2 320.033 348.067 323.9 345.8C327.767 343.533 330.167 339.667 331.1 334.2L331.9 329.4C332.167 328.2 332.367 326.933 332.5 325.6C332.767 324.267 332.9 323.2 332.9 322.4C332.9 317.733 331.567 314.4 328.9 312.4C326.233 310.4 321.9 309.4 315.9 309.4H299.5L292.9 349.2H308.1ZM314.3 289.6C321.367 289.6 326.7 288.6 330.3 286.6C333.9 284.467 336.233 280.4 337.3 274.4L338.1 269.6C338.233 268.933 338.367 268 338.5 266.8C338.633 265.467 338.7 264.333 338.7 263.4C338.7 258.867 337.233 255.733 334.3 254C331.5 252.133 327.433 251.2 322.1 251.2H309.3L302.9 289.6H314.3Z" fill="white"/>
<defs>
<linearGradient id="paint0_linear_1_65" x1="93" y1="136" x2="365" y2="359" gradientUnits="userSpaceOnUse">
<stop stop-color="#10B981"/>
<stop offset="1" stop-color="#06573C"/>
</linearGradient>
</defs>
</svg>
